%TF.GenerationSoftware,KiCad,Pcbnew,(5.1.8)-1*%
%TF.CreationDate,2021-02-07T10:27:01+01:00*%
%TF.ProjectId,deniseadapter,64656e69-7365-4616-9461-707465722e6b,rev?*%
%TF.SameCoordinates,Original*%
%TF.FileFunction,Paste,Top*%
%TF.FilePolarity,Positive*%
%FSLAX46Y46*%
G04 Gerber Fmt 4.6, Leading zero omitted, Abs format (unit mm)*
G04 Created by KiCad (PCBNEW (5.1.8)-1) date 2021-02-07 10:27:01*
%MOMM*%
%LPD*%
G01*
G04 APERTURE LIST*
%ADD10R,1.500000X2.000000*%
%ADD11R,3.800000X2.000000*%
%ADD12R,1.450000X0.450000*%
G04 APERTURE END LIST*
%TO.C,U1*%
G36*
G01*
X127230000Y-79525000D02*
X127230000Y-79225000D01*
G75*
G02*
X127380000Y-79075000I150000J0D01*
G01*
X129030000Y-79075000D01*
G75*
G02*
X129180000Y-79225000I0J-150000D01*
G01*
X129180000Y-79525000D01*
G75*
G02*
X129030000Y-79675000I-150000J0D01*
G01*
X127380000Y-79675000D01*
G75*
G02*
X127230000Y-79525000I0J150000D01*
G01*
G37*
G36*
G01*
X127230000Y-80795000D02*
X127230000Y-80495000D01*
G75*
G02*
X127380000Y-80345000I150000J0D01*
G01*
X129030000Y-80345000D01*
G75*
G02*
X129180000Y-80495000I0J-150000D01*
G01*
X129180000Y-80795000D01*
G75*
G02*
X129030000Y-80945000I-150000J0D01*
G01*
X127380000Y-80945000D01*
G75*
G02*
X127230000Y-80795000I0J150000D01*
G01*
G37*
G36*
G01*
X127230000Y-82065000D02*
X127230000Y-81765000D01*
G75*
G02*
X127380000Y-81615000I150000J0D01*
G01*
X129030000Y-81615000D01*
G75*
G02*
X129180000Y-81765000I0J-150000D01*
G01*
X129180000Y-82065000D01*
G75*
G02*
X129030000Y-82215000I-150000J0D01*
G01*
X127380000Y-82215000D01*
G75*
G02*
X127230000Y-82065000I0J150000D01*
G01*
G37*
G36*
G01*
X127230000Y-83335000D02*
X127230000Y-83035000D01*
G75*
G02*
X127380000Y-82885000I150000J0D01*
G01*
X129030000Y-82885000D01*
G75*
G02*
X129180000Y-83035000I0J-150000D01*
G01*
X129180000Y-83335000D01*
G75*
G02*
X129030000Y-83485000I-150000J0D01*
G01*
X127380000Y-83485000D01*
G75*
G02*
X127230000Y-83335000I0J150000D01*
G01*
G37*
G36*
G01*
X127230000Y-84605000D02*
X127230000Y-84305000D01*
G75*
G02*
X127380000Y-84155000I150000J0D01*
G01*
X129030000Y-84155000D01*
G75*
G02*
X129180000Y-84305000I0J-150000D01*
G01*
X129180000Y-84605000D01*
G75*
G02*
X129030000Y-84755000I-150000J0D01*
G01*
X127380000Y-84755000D01*
G75*
G02*
X127230000Y-84605000I0J150000D01*
G01*
G37*
G36*
G01*
X127230000Y-85875000D02*
X127230000Y-85575000D01*
G75*
G02*
X127380000Y-85425000I150000J0D01*
G01*
X129030000Y-85425000D01*
G75*
G02*
X129180000Y-85575000I0J-150000D01*
G01*
X129180000Y-85875000D01*
G75*
G02*
X129030000Y-86025000I-150000J0D01*
G01*
X127380000Y-86025000D01*
G75*
G02*
X127230000Y-85875000I0J150000D01*
G01*
G37*
G36*
G01*
X127230000Y-87145000D02*
X127230000Y-86845000D01*
G75*
G02*
X127380000Y-86695000I150000J0D01*
G01*
X129030000Y-86695000D01*
G75*
G02*
X129180000Y-86845000I0J-150000D01*
G01*
X129180000Y-87145000D01*
G75*
G02*
X129030000Y-87295000I-150000J0D01*
G01*
X127380000Y-87295000D01*
G75*
G02*
X127230000Y-87145000I0J150000D01*
G01*
G37*
G36*
G01*
X122280000Y-87145000D02*
X122280000Y-86845000D01*
G75*
G02*
X122430000Y-86695000I150000J0D01*
G01*
X124080000Y-86695000D01*
G75*
G02*
X124230000Y-86845000I0J-150000D01*
G01*
X124230000Y-87145000D01*
G75*
G02*
X124080000Y-87295000I-150000J0D01*
G01*
X122430000Y-87295000D01*
G75*
G02*
X122280000Y-87145000I0J150000D01*
G01*
G37*
G36*
G01*
X122280000Y-85875000D02*
X122280000Y-85575000D01*
G75*
G02*
X122430000Y-85425000I150000J0D01*
G01*
X124080000Y-85425000D01*
G75*
G02*
X124230000Y-85575000I0J-150000D01*
G01*
X124230000Y-85875000D01*
G75*
G02*
X124080000Y-86025000I-150000J0D01*
G01*
X122430000Y-86025000D01*
G75*
G02*
X122280000Y-85875000I0J150000D01*
G01*
G37*
G36*
G01*
X122280000Y-84605000D02*
X122280000Y-84305000D01*
G75*
G02*
X122430000Y-84155000I150000J0D01*
G01*
X124080000Y-84155000D01*
G75*
G02*
X124230000Y-84305000I0J-150000D01*
G01*
X124230000Y-84605000D01*
G75*
G02*
X124080000Y-84755000I-150000J0D01*
G01*
X122430000Y-84755000D01*
G75*
G02*
X122280000Y-84605000I0J150000D01*
G01*
G37*
G36*
G01*
X122280000Y-83335000D02*
X122280000Y-83035000D01*
G75*
G02*
X122430000Y-82885000I150000J0D01*
G01*
X124080000Y-82885000D01*
G75*
G02*
X124230000Y-83035000I0J-150000D01*
G01*
X124230000Y-83335000D01*
G75*
G02*
X124080000Y-83485000I-150000J0D01*
G01*
X122430000Y-83485000D01*
G75*
G02*
X122280000Y-83335000I0J150000D01*
G01*
G37*
G36*
G01*
X122280000Y-82065000D02*
X122280000Y-81765000D01*
G75*
G02*
X122430000Y-81615000I150000J0D01*
G01*
X124080000Y-81615000D01*
G75*
G02*
X124230000Y-81765000I0J-150000D01*
G01*
X124230000Y-82065000D01*
G75*
G02*
X124080000Y-82215000I-150000J0D01*
G01*
X122430000Y-82215000D01*
G75*
G02*
X122280000Y-82065000I0J150000D01*
G01*
G37*
G36*
G01*
X122280000Y-80795000D02*
X122280000Y-80495000D01*
G75*
G02*
X122430000Y-80345000I150000J0D01*
G01*
X124080000Y-80345000D01*
G75*
G02*
X124230000Y-80495000I0J-150000D01*
G01*
X124230000Y-80795000D01*
G75*
G02*
X124080000Y-80945000I-150000J0D01*
G01*
X122430000Y-80945000D01*
G75*
G02*
X122280000Y-80795000I0J150000D01*
G01*
G37*
G36*
G01*
X122280000Y-79525000D02*
X122280000Y-79225000D01*
G75*
G02*
X122430000Y-79075000I150000J0D01*
G01*
X124080000Y-79075000D01*
G75*
G02*
X124230000Y-79225000I0J-150000D01*
G01*
X124230000Y-79525000D01*
G75*
G02*
X124080000Y-79675000I-150000J0D01*
G01*
X122430000Y-79675000D01*
G75*
G02*
X122280000Y-79525000I0J150000D01*
G01*
G37*
%TD*%
%TO.C,C3*%
G36*
G01*
X124895000Y-108415000D02*
X124895000Y-108755000D01*
G75*
G02*
X124755000Y-108895000I-140000J0D01*
G01*
X124475000Y-108895000D01*
G75*
G02*
X124335000Y-108755000I0J140000D01*
G01*
X124335000Y-108415000D01*
G75*
G02*
X124475000Y-108275000I140000J0D01*
G01*
X124755000Y-108275000D01*
G75*
G02*
X124895000Y-108415000I0J-140000D01*
G01*
G37*
G36*
G01*
X125855000Y-108415000D02*
X125855000Y-108755000D01*
G75*
G02*
X125715000Y-108895000I-140000J0D01*
G01*
X125435000Y-108895000D01*
G75*
G02*
X125295000Y-108755000I0J140000D01*
G01*
X125295000Y-108415000D01*
G75*
G02*
X125435000Y-108275000I140000J0D01*
G01*
X125715000Y-108275000D01*
G75*
G02*
X125855000Y-108415000I0J-140000D01*
G01*
G37*
%TD*%
%TO.C,C2*%
G36*
G01*
X124260000Y-94826000D02*
X124260000Y-95166000D01*
G75*
G02*
X124120000Y-95306000I-140000J0D01*
G01*
X123840000Y-95306000D01*
G75*
G02*
X123700000Y-95166000I0J140000D01*
G01*
X123700000Y-94826000D01*
G75*
G02*
X123840000Y-94686000I140000J0D01*
G01*
X124120000Y-94686000D01*
G75*
G02*
X124260000Y-94826000I0J-140000D01*
G01*
G37*
G36*
G01*
X125220000Y-94826000D02*
X125220000Y-95166000D01*
G75*
G02*
X125080000Y-95306000I-140000J0D01*
G01*
X124800000Y-95306000D01*
G75*
G02*
X124660000Y-95166000I0J140000D01*
G01*
X124660000Y-94826000D01*
G75*
G02*
X124800000Y-94686000I140000J0D01*
G01*
X125080000Y-94686000D01*
G75*
G02*
X125220000Y-94826000I0J-140000D01*
G01*
G37*
%TD*%
%TO.C,C1*%
G36*
G01*
X125533000Y-77490500D02*
X125533000Y-77830500D01*
G75*
G02*
X125393000Y-77970500I-140000J0D01*
G01*
X125113000Y-77970500D01*
G75*
G02*
X124973000Y-77830500I0J140000D01*
G01*
X124973000Y-77490500D01*
G75*
G02*
X125113000Y-77350500I140000J0D01*
G01*
X125393000Y-77350500D01*
G75*
G02*
X125533000Y-77490500I0J-140000D01*
G01*
G37*
G36*
G01*
X126493000Y-77490500D02*
X126493000Y-77830500D01*
G75*
G02*
X126353000Y-77970500I-140000J0D01*
G01*
X126073000Y-77970500D01*
G75*
G02*
X125933000Y-77830500I0J140000D01*
G01*
X125933000Y-77490500D01*
G75*
G02*
X126073000Y-77350500I140000J0D01*
G01*
X126353000Y-77350500D01*
G75*
G02*
X126493000Y-77490500I0J-140000D01*
G01*
G37*
%TD*%
%TO.C,R1*%
G36*
G01*
X128030000Y-74745000D02*
X128030000Y-75115000D01*
G75*
G02*
X127895000Y-75250000I-135000J0D01*
G01*
X127625000Y-75250000D01*
G75*
G02*
X127490000Y-75115000I0J135000D01*
G01*
X127490000Y-74745000D01*
G75*
G02*
X127625000Y-74610000I135000J0D01*
G01*
X127895000Y-74610000D01*
G75*
G02*
X128030000Y-74745000I0J-135000D01*
G01*
G37*
G36*
G01*
X129050000Y-74745000D02*
X129050000Y-75115000D01*
G75*
G02*
X128915000Y-75250000I-135000J0D01*
G01*
X128645000Y-75250000D01*
G75*
G02*
X128510000Y-75115000I0J135000D01*
G01*
X128510000Y-74745000D01*
G75*
G02*
X128645000Y-74610000I135000J0D01*
G01*
X128915000Y-74610000D01*
G75*
G02*
X129050000Y-74745000I0J-135000D01*
G01*
G37*
%TD*%
%TO.C,C4*%
G36*
G01*
X124244000Y-72983300D02*
X124244000Y-73483300D01*
G75*
G02*
X124019000Y-73708300I-225000J0D01*
G01*
X123569000Y-73708300D01*
G75*
G02*
X123344000Y-73483300I0J225000D01*
G01*
X123344000Y-72983300D01*
G75*
G02*
X123569000Y-72758300I225000J0D01*
G01*
X124019000Y-72758300D01*
G75*
G02*
X124244000Y-72983300I0J-225000D01*
G01*
G37*
G36*
G01*
X125794000Y-72983300D02*
X125794000Y-73483300D01*
G75*
G02*
X125569000Y-73708300I-225000J0D01*
G01*
X125119000Y-73708300D01*
G75*
G02*
X124894000Y-73483300I0J225000D01*
G01*
X124894000Y-72983300D01*
G75*
G02*
X125119000Y-72758300I225000J0D01*
G01*
X125569000Y-72758300D01*
G75*
G02*
X125794000Y-72983300I0J-225000D01*
G01*
G37*
%TD*%
D10*
%TO.C,U4*%
X123539000Y-70033300D03*
X128139000Y-70033300D03*
X125839000Y-70033300D03*
D11*
X125839000Y-63733300D03*
%TD*%
D12*
%TO.C,U2*%
X128045000Y-96770000D03*
X128045000Y-97420000D03*
X128045000Y-98070000D03*
X128045000Y-98720000D03*
X128045000Y-99370000D03*
X128045000Y-100020000D03*
X128045000Y-100670000D03*
X128045000Y-101320000D03*
X128045000Y-101970000D03*
X128045000Y-102620000D03*
X122145000Y-102620000D03*
X122145000Y-101970000D03*
X122145000Y-101320000D03*
X122145000Y-100670000D03*
X122145000Y-100020000D03*
X122145000Y-99370000D03*
X122145000Y-98720000D03*
X122145000Y-98070000D03*
X122145000Y-97420000D03*
X122145000Y-96770000D03*
%TD*%
%TO.C,U3*%
X122145000Y-110105000D03*
X122145000Y-110755000D03*
X122145000Y-111405000D03*
X122145000Y-112055000D03*
X122145000Y-112705000D03*
X122145000Y-113355000D03*
X122145000Y-114005000D03*
X122145000Y-114655000D03*
X122145000Y-115305000D03*
X122145000Y-115955000D03*
X128045000Y-115955000D03*
X128045000Y-115305000D03*
X128045000Y-114655000D03*
X128045000Y-114005000D03*
X128045000Y-113355000D03*
X128045000Y-112705000D03*
X128045000Y-112055000D03*
X128045000Y-111405000D03*
X128045000Y-110755000D03*
X128045000Y-110105000D03*
%TD*%
M02*
