%TF.GenerationSoftware,KiCad,Pcbnew,(5.1.8)-1*%
%TF.CreationDate,2021-02-07T10:27:01+01:00*%
%TF.ProjectId,deniseadapter,64656e69-7365-4616-9461-707465722e6b,rev?*%
%TF.SameCoordinates,Original*%
%TF.FileFunction,Soldermask,Top*%
%TF.FilePolarity,Negative*%
%FSLAX46Y46*%
G04 Gerber Fmt 4.6, Leading zero omitted, Abs format (unit mm)*
G04 Created by KiCad (PCBNEW (5.1.8)-1) date 2021-02-07 10:27:01*
%MOMM*%
%LPD*%
G01*
G04 APERTURE LIST*
%ADD10O,2.100000X2.100000*%
%ADD11O,2.000000X2.000000*%
G04 APERTURE END LIST*
%TO.C,U1*%
G36*
G01*
X127030000Y-79625000D02*
X127030000Y-79125000D01*
G75*
G02*
X127280000Y-78875000I250000J0D01*
G01*
X129130000Y-78875000D01*
G75*
G02*
X129380000Y-79125000I0J-250000D01*
G01*
X129380000Y-79625000D01*
G75*
G02*
X129130000Y-79875000I-250000J0D01*
G01*
X127280000Y-79875000D01*
G75*
G02*
X127030000Y-79625000I0J250000D01*
G01*
G37*
G36*
G01*
X127030000Y-80895000D02*
X127030000Y-80395000D01*
G75*
G02*
X127280000Y-80145000I250000J0D01*
G01*
X129130000Y-80145000D01*
G75*
G02*
X129380000Y-80395000I0J-250000D01*
G01*
X129380000Y-80895000D01*
G75*
G02*
X129130000Y-81145000I-250000J0D01*
G01*
X127280000Y-81145000D01*
G75*
G02*
X127030000Y-80895000I0J250000D01*
G01*
G37*
G36*
G01*
X127030000Y-82165000D02*
X127030000Y-81665000D01*
G75*
G02*
X127280000Y-81415000I250000J0D01*
G01*
X129130000Y-81415000D01*
G75*
G02*
X129380000Y-81665000I0J-250000D01*
G01*
X129380000Y-82165000D01*
G75*
G02*
X129130000Y-82415000I-250000J0D01*
G01*
X127280000Y-82415000D01*
G75*
G02*
X127030000Y-82165000I0J250000D01*
G01*
G37*
G36*
G01*
X127030000Y-83435000D02*
X127030000Y-82935000D01*
G75*
G02*
X127280000Y-82685000I250000J0D01*
G01*
X129130000Y-82685000D01*
G75*
G02*
X129380000Y-82935000I0J-250000D01*
G01*
X129380000Y-83435000D01*
G75*
G02*
X129130000Y-83685000I-250000J0D01*
G01*
X127280000Y-83685000D01*
G75*
G02*
X127030000Y-83435000I0J250000D01*
G01*
G37*
G36*
G01*
X127030000Y-84705000D02*
X127030000Y-84205000D01*
G75*
G02*
X127280000Y-83955000I250000J0D01*
G01*
X129130000Y-83955000D01*
G75*
G02*
X129380000Y-84205000I0J-250000D01*
G01*
X129380000Y-84705000D01*
G75*
G02*
X129130000Y-84955000I-250000J0D01*
G01*
X127280000Y-84955000D01*
G75*
G02*
X127030000Y-84705000I0J250000D01*
G01*
G37*
G36*
G01*
X127030000Y-85975000D02*
X127030000Y-85475000D01*
G75*
G02*
X127280000Y-85225000I250000J0D01*
G01*
X129130000Y-85225000D01*
G75*
G02*
X129380000Y-85475000I0J-250000D01*
G01*
X129380000Y-85975000D01*
G75*
G02*
X129130000Y-86225000I-250000J0D01*
G01*
X127280000Y-86225000D01*
G75*
G02*
X127030000Y-85975000I0J250000D01*
G01*
G37*
G36*
G01*
X127030000Y-87245000D02*
X127030000Y-86745000D01*
G75*
G02*
X127280000Y-86495000I250000J0D01*
G01*
X129130000Y-86495000D01*
G75*
G02*
X129380000Y-86745000I0J-250000D01*
G01*
X129380000Y-87245000D01*
G75*
G02*
X129130000Y-87495000I-250000J0D01*
G01*
X127280000Y-87495000D01*
G75*
G02*
X127030000Y-87245000I0J250000D01*
G01*
G37*
G36*
G01*
X122080000Y-87245000D02*
X122080000Y-86745000D01*
G75*
G02*
X122330000Y-86495000I250000J0D01*
G01*
X124180000Y-86495000D01*
G75*
G02*
X124430000Y-86745000I0J-250000D01*
G01*
X124430000Y-87245000D01*
G75*
G02*
X124180000Y-87495000I-250000J0D01*
G01*
X122330000Y-87495000D01*
G75*
G02*
X122080000Y-87245000I0J250000D01*
G01*
G37*
G36*
G01*
X122080000Y-85975000D02*
X122080000Y-85475000D01*
G75*
G02*
X122330000Y-85225000I250000J0D01*
G01*
X124180000Y-85225000D01*
G75*
G02*
X124430000Y-85475000I0J-250000D01*
G01*
X124430000Y-85975000D01*
G75*
G02*
X124180000Y-86225000I-250000J0D01*
G01*
X122330000Y-86225000D01*
G75*
G02*
X122080000Y-85975000I0J250000D01*
G01*
G37*
G36*
G01*
X122080000Y-84705000D02*
X122080000Y-84205000D01*
G75*
G02*
X122330000Y-83955000I250000J0D01*
G01*
X124180000Y-83955000D01*
G75*
G02*
X124430000Y-84205000I0J-250000D01*
G01*
X124430000Y-84705000D01*
G75*
G02*
X124180000Y-84955000I-250000J0D01*
G01*
X122330000Y-84955000D01*
G75*
G02*
X122080000Y-84705000I0J250000D01*
G01*
G37*
G36*
G01*
X122080000Y-83435000D02*
X122080000Y-82935000D01*
G75*
G02*
X122330000Y-82685000I250000J0D01*
G01*
X124180000Y-82685000D01*
G75*
G02*
X124430000Y-82935000I0J-250000D01*
G01*
X124430000Y-83435000D01*
G75*
G02*
X124180000Y-83685000I-250000J0D01*
G01*
X122330000Y-83685000D01*
G75*
G02*
X122080000Y-83435000I0J250000D01*
G01*
G37*
G36*
G01*
X122080000Y-82165000D02*
X122080000Y-81665000D01*
G75*
G02*
X122330000Y-81415000I250000J0D01*
G01*
X124180000Y-81415000D01*
G75*
G02*
X124430000Y-81665000I0J-250000D01*
G01*
X124430000Y-82165000D01*
G75*
G02*
X124180000Y-82415000I-250000J0D01*
G01*
X122330000Y-82415000D01*
G75*
G02*
X122080000Y-82165000I0J250000D01*
G01*
G37*
G36*
G01*
X122080000Y-80895000D02*
X122080000Y-80395000D01*
G75*
G02*
X122330000Y-80145000I250000J0D01*
G01*
X124180000Y-80145000D01*
G75*
G02*
X124430000Y-80395000I0J-250000D01*
G01*
X124430000Y-80895000D01*
G75*
G02*
X124180000Y-81145000I-250000J0D01*
G01*
X122330000Y-81145000D01*
G75*
G02*
X122080000Y-80895000I0J250000D01*
G01*
G37*
G36*
G01*
X122080000Y-79625000D02*
X122080000Y-79125000D01*
G75*
G02*
X122330000Y-78875000I250000J0D01*
G01*
X124180000Y-78875000D01*
G75*
G02*
X124430000Y-79125000I0J-250000D01*
G01*
X124430000Y-79625000D01*
G75*
G02*
X124180000Y-79875000I-250000J0D01*
G01*
X122330000Y-79875000D01*
G75*
G02*
X122080000Y-79625000I0J250000D01*
G01*
G37*
%TD*%
%TO.C,C3*%
G36*
G01*
X125095000Y-108315000D02*
X125095000Y-108855000D01*
G75*
G02*
X124855000Y-109095000I-240000J0D01*
G01*
X124375000Y-109095000D01*
G75*
G02*
X124135000Y-108855000I0J240000D01*
G01*
X124135000Y-108315000D01*
G75*
G02*
X124375000Y-108075000I240000J0D01*
G01*
X124855000Y-108075000D01*
G75*
G02*
X125095000Y-108315000I0J-240000D01*
G01*
G37*
G36*
G01*
X126055000Y-108315000D02*
X126055000Y-108855000D01*
G75*
G02*
X125815000Y-109095000I-240000J0D01*
G01*
X125335000Y-109095000D01*
G75*
G02*
X125095000Y-108855000I0J240000D01*
G01*
X125095000Y-108315000D01*
G75*
G02*
X125335000Y-108075000I240000J0D01*
G01*
X125815000Y-108075000D01*
G75*
G02*
X126055000Y-108315000I0J-240000D01*
G01*
G37*
%TD*%
%TO.C,C2*%
G36*
G01*
X124460000Y-94726000D02*
X124460000Y-95266000D01*
G75*
G02*
X124220000Y-95506000I-240000J0D01*
G01*
X123740000Y-95506000D01*
G75*
G02*
X123500000Y-95266000I0J240000D01*
G01*
X123500000Y-94726000D01*
G75*
G02*
X123740000Y-94486000I240000J0D01*
G01*
X124220000Y-94486000D01*
G75*
G02*
X124460000Y-94726000I0J-240000D01*
G01*
G37*
G36*
G01*
X125420000Y-94726000D02*
X125420000Y-95266000D01*
G75*
G02*
X125180000Y-95506000I-240000J0D01*
G01*
X124700000Y-95506000D01*
G75*
G02*
X124460000Y-95266000I0J240000D01*
G01*
X124460000Y-94726000D01*
G75*
G02*
X124700000Y-94486000I240000J0D01*
G01*
X125180000Y-94486000D01*
G75*
G02*
X125420000Y-94726000I0J-240000D01*
G01*
G37*
%TD*%
%TO.C,C1*%
G36*
G01*
X125733000Y-77390500D02*
X125733000Y-77930500D01*
G75*
G02*
X125493000Y-78170500I-240000J0D01*
G01*
X125013000Y-78170500D01*
G75*
G02*
X124773000Y-77930500I0J240000D01*
G01*
X124773000Y-77390500D01*
G75*
G02*
X125013000Y-77150500I240000J0D01*
G01*
X125493000Y-77150500D01*
G75*
G02*
X125733000Y-77390500I0J-240000D01*
G01*
G37*
G36*
G01*
X126693000Y-77390500D02*
X126693000Y-77930500D01*
G75*
G02*
X126453000Y-78170500I-240000J0D01*
G01*
X125973000Y-78170500D01*
G75*
G02*
X125733000Y-77930500I0J240000D01*
G01*
X125733000Y-77390500D01*
G75*
G02*
X125973000Y-77150500I240000J0D01*
G01*
X126453000Y-77150500D01*
G75*
G02*
X126693000Y-77390500I0J-240000D01*
G01*
G37*
%TD*%
%TO.C,R1*%
G36*
G01*
X128230000Y-74645000D02*
X128230000Y-75215000D01*
G75*
G02*
X127995000Y-75450000I-235000J0D01*
G01*
X127525000Y-75450000D01*
G75*
G02*
X127290000Y-75215000I0J235000D01*
G01*
X127290000Y-74645000D01*
G75*
G02*
X127525000Y-74410000I235000J0D01*
G01*
X127995000Y-74410000D01*
G75*
G02*
X128230000Y-74645000I0J-235000D01*
G01*
G37*
G36*
G01*
X129250000Y-74645000D02*
X129250000Y-75215000D01*
G75*
G02*
X129015000Y-75450000I-235000J0D01*
G01*
X128545000Y-75450000D01*
G75*
G02*
X128310000Y-75215000I0J235000D01*
G01*
X128310000Y-74645000D01*
G75*
G02*
X128545000Y-74410000I235000J0D01*
G01*
X129015000Y-74410000D01*
G75*
G02*
X129250000Y-74645000I0J-235000D01*
G01*
G37*
%TD*%
%TO.C,C4*%
G36*
G01*
X124444000Y-72883300D02*
X124444000Y-73583300D01*
G75*
G02*
X124119000Y-73908300I-325000J0D01*
G01*
X123469000Y-73908300D01*
G75*
G02*
X123144000Y-73583300I0J325000D01*
G01*
X123144000Y-72883300D01*
G75*
G02*
X123469000Y-72558300I325000J0D01*
G01*
X124119000Y-72558300D01*
G75*
G02*
X124444000Y-72883300I0J-325000D01*
G01*
G37*
G36*
G01*
X125994000Y-72883300D02*
X125994000Y-73583300D01*
G75*
G02*
X125669000Y-73908300I-325000J0D01*
G01*
X125019000Y-73908300D01*
G75*
G02*
X124694000Y-73583300I0J325000D01*
G01*
X124694000Y-72883300D01*
G75*
G02*
X125019000Y-72558300I325000J0D01*
G01*
X125669000Y-72558300D01*
G75*
G02*
X125994000Y-72883300I0J-325000D01*
G01*
G37*
%TD*%
%TO.C,U4*%
G36*
G01*
X124289000Y-71233300D02*
X122789000Y-71233300D01*
G75*
G02*
X122589000Y-71033300I0J200000D01*
G01*
X122589000Y-69033300D01*
G75*
G02*
X122789000Y-68833300I200000J0D01*
G01*
X124289000Y-68833300D01*
G75*
G02*
X124489000Y-69033300I0J-200000D01*
G01*
X124489000Y-71033300D01*
G75*
G02*
X124289000Y-71233300I-200000J0D01*
G01*
G37*
G36*
G01*
X128889000Y-71233300D02*
X127389000Y-71233300D01*
G75*
G02*
X127189000Y-71033300I0J200000D01*
G01*
X127189000Y-69033300D01*
G75*
G02*
X127389000Y-68833300I200000J0D01*
G01*
X128889000Y-68833300D01*
G75*
G02*
X129089000Y-69033300I0J-200000D01*
G01*
X129089000Y-71033300D01*
G75*
G02*
X128889000Y-71233300I-200000J0D01*
G01*
G37*
G36*
G01*
X126589000Y-71233300D02*
X125089000Y-71233300D01*
G75*
G02*
X124889000Y-71033300I0J200000D01*
G01*
X124889000Y-69033300D01*
G75*
G02*
X125089000Y-68833300I200000J0D01*
G01*
X126589000Y-68833300D01*
G75*
G02*
X126789000Y-69033300I0J-200000D01*
G01*
X126789000Y-71033300D01*
G75*
G02*
X126589000Y-71233300I-200000J0D01*
G01*
G37*
G36*
G01*
X127739000Y-64933300D02*
X123939000Y-64933300D01*
G75*
G02*
X123739000Y-64733300I0J200000D01*
G01*
X123739000Y-62733300D01*
G75*
G02*
X123939000Y-62533300I200000J0D01*
G01*
X127739000Y-62533300D01*
G75*
G02*
X127939000Y-62733300I0J-200000D01*
G01*
X127939000Y-64733300D01*
G75*
G02*
X127739000Y-64933300I-200000J0D01*
G01*
G37*
%TD*%
%TO.C,JMainBoard1*%
G36*
G01*
X120430000Y-60110000D02*
X120430000Y-61810000D01*
G75*
G02*
X120230000Y-62010000I-200000J0D01*
G01*
X118530000Y-62010000D01*
G75*
G02*
X118330000Y-61810000I0J200000D01*
G01*
X118330000Y-60110000D01*
G75*
G02*
X118530000Y-59910000I200000J0D01*
G01*
X120230000Y-59910000D01*
G75*
G02*
X120430000Y-60110000I0J-200000D01*
G01*
G37*
D10*
X119380000Y-63500000D03*
X119380000Y-66040000D03*
X119380000Y-68580000D03*
X119380000Y-71120000D03*
X119380000Y-73660000D03*
X119380000Y-76200000D03*
X119380000Y-78740000D03*
X119380000Y-81280000D03*
X119380000Y-83820000D03*
X119380000Y-86360000D03*
X119380000Y-88900000D03*
X119380000Y-91440000D03*
X119380000Y-93980000D03*
X119380000Y-96520000D03*
X119380000Y-99060000D03*
X119380000Y-101600000D03*
X119380000Y-104140000D03*
X119380000Y-106680000D03*
X119380000Y-109220000D03*
X119380000Y-111760000D03*
X119380000Y-114300000D03*
X119380000Y-116840000D03*
X119380000Y-119380000D03*
%TD*%
%TO.C,U2*%
G36*
G01*
X127120000Y-96995000D02*
X127120000Y-96545000D01*
G75*
G02*
X127320000Y-96345000I200000J0D01*
G01*
X128770000Y-96345000D01*
G75*
G02*
X128970000Y-96545000I0J-200000D01*
G01*
X128970000Y-96995000D01*
G75*
G02*
X128770000Y-97195000I-200000J0D01*
G01*
X127320000Y-97195000D01*
G75*
G02*
X127120000Y-96995000I0J200000D01*
G01*
G37*
G36*
G01*
X127120000Y-97645000D02*
X127120000Y-97195000D01*
G75*
G02*
X127320000Y-96995000I200000J0D01*
G01*
X128770000Y-96995000D01*
G75*
G02*
X128970000Y-97195000I0J-200000D01*
G01*
X128970000Y-97645000D01*
G75*
G02*
X128770000Y-97845000I-200000J0D01*
G01*
X127320000Y-97845000D01*
G75*
G02*
X127120000Y-97645000I0J200000D01*
G01*
G37*
G36*
G01*
X127120000Y-98295000D02*
X127120000Y-97845000D01*
G75*
G02*
X127320000Y-97645000I200000J0D01*
G01*
X128770000Y-97645000D01*
G75*
G02*
X128970000Y-97845000I0J-200000D01*
G01*
X128970000Y-98295000D01*
G75*
G02*
X128770000Y-98495000I-200000J0D01*
G01*
X127320000Y-98495000D01*
G75*
G02*
X127120000Y-98295000I0J200000D01*
G01*
G37*
G36*
G01*
X127120000Y-98945000D02*
X127120000Y-98495000D01*
G75*
G02*
X127320000Y-98295000I200000J0D01*
G01*
X128770000Y-98295000D01*
G75*
G02*
X128970000Y-98495000I0J-200000D01*
G01*
X128970000Y-98945000D01*
G75*
G02*
X128770000Y-99145000I-200000J0D01*
G01*
X127320000Y-99145000D01*
G75*
G02*
X127120000Y-98945000I0J200000D01*
G01*
G37*
G36*
G01*
X127120000Y-99595000D02*
X127120000Y-99145000D01*
G75*
G02*
X127320000Y-98945000I200000J0D01*
G01*
X128770000Y-98945000D01*
G75*
G02*
X128970000Y-99145000I0J-200000D01*
G01*
X128970000Y-99595000D01*
G75*
G02*
X128770000Y-99795000I-200000J0D01*
G01*
X127320000Y-99795000D01*
G75*
G02*
X127120000Y-99595000I0J200000D01*
G01*
G37*
G36*
G01*
X127120000Y-100245000D02*
X127120000Y-99795000D01*
G75*
G02*
X127320000Y-99595000I200000J0D01*
G01*
X128770000Y-99595000D01*
G75*
G02*
X128970000Y-99795000I0J-200000D01*
G01*
X128970000Y-100245000D01*
G75*
G02*
X128770000Y-100445000I-200000J0D01*
G01*
X127320000Y-100445000D01*
G75*
G02*
X127120000Y-100245000I0J200000D01*
G01*
G37*
G36*
G01*
X127120000Y-100895000D02*
X127120000Y-100445000D01*
G75*
G02*
X127320000Y-100245000I200000J0D01*
G01*
X128770000Y-100245000D01*
G75*
G02*
X128970000Y-100445000I0J-200000D01*
G01*
X128970000Y-100895000D01*
G75*
G02*
X128770000Y-101095000I-200000J0D01*
G01*
X127320000Y-101095000D01*
G75*
G02*
X127120000Y-100895000I0J200000D01*
G01*
G37*
G36*
G01*
X127120000Y-101545000D02*
X127120000Y-101095000D01*
G75*
G02*
X127320000Y-100895000I200000J0D01*
G01*
X128770000Y-100895000D01*
G75*
G02*
X128970000Y-101095000I0J-200000D01*
G01*
X128970000Y-101545000D01*
G75*
G02*
X128770000Y-101745000I-200000J0D01*
G01*
X127320000Y-101745000D01*
G75*
G02*
X127120000Y-101545000I0J200000D01*
G01*
G37*
G36*
G01*
X127120000Y-102195000D02*
X127120000Y-101745000D01*
G75*
G02*
X127320000Y-101545000I200000J0D01*
G01*
X128770000Y-101545000D01*
G75*
G02*
X128970000Y-101745000I0J-200000D01*
G01*
X128970000Y-102195000D01*
G75*
G02*
X128770000Y-102395000I-200000J0D01*
G01*
X127320000Y-102395000D01*
G75*
G02*
X127120000Y-102195000I0J200000D01*
G01*
G37*
G36*
G01*
X127120000Y-102845000D02*
X127120000Y-102395000D01*
G75*
G02*
X127320000Y-102195000I200000J0D01*
G01*
X128770000Y-102195000D01*
G75*
G02*
X128970000Y-102395000I0J-200000D01*
G01*
X128970000Y-102845000D01*
G75*
G02*
X128770000Y-103045000I-200000J0D01*
G01*
X127320000Y-103045000D01*
G75*
G02*
X127120000Y-102845000I0J200000D01*
G01*
G37*
G36*
G01*
X121220000Y-102845000D02*
X121220000Y-102395000D01*
G75*
G02*
X121420000Y-102195000I200000J0D01*
G01*
X122870000Y-102195000D01*
G75*
G02*
X123070000Y-102395000I0J-200000D01*
G01*
X123070000Y-102845000D01*
G75*
G02*
X122870000Y-103045000I-200000J0D01*
G01*
X121420000Y-103045000D01*
G75*
G02*
X121220000Y-102845000I0J200000D01*
G01*
G37*
G36*
G01*
X121220000Y-102195000D02*
X121220000Y-101745000D01*
G75*
G02*
X121420000Y-101545000I200000J0D01*
G01*
X122870000Y-101545000D01*
G75*
G02*
X123070000Y-101745000I0J-200000D01*
G01*
X123070000Y-102195000D01*
G75*
G02*
X122870000Y-102395000I-200000J0D01*
G01*
X121420000Y-102395000D01*
G75*
G02*
X121220000Y-102195000I0J200000D01*
G01*
G37*
G36*
G01*
X121220000Y-101545000D02*
X121220000Y-101095000D01*
G75*
G02*
X121420000Y-100895000I200000J0D01*
G01*
X122870000Y-100895000D01*
G75*
G02*
X123070000Y-101095000I0J-200000D01*
G01*
X123070000Y-101545000D01*
G75*
G02*
X122870000Y-101745000I-200000J0D01*
G01*
X121420000Y-101745000D01*
G75*
G02*
X121220000Y-101545000I0J200000D01*
G01*
G37*
G36*
G01*
X121220000Y-100895000D02*
X121220000Y-100445000D01*
G75*
G02*
X121420000Y-100245000I200000J0D01*
G01*
X122870000Y-100245000D01*
G75*
G02*
X123070000Y-100445000I0J-200000D01*
G01*
X123070000Y-100895000D01*
G75*
G02*
X122870000Y-101095000I-200000J0D01*
G01*
X121420000Y-101095000D01*
G75*
G02*
X121220000Y-100895000I0J200000D01*
G01*
G37*
G36*
G01*
X121220000Y-100245000D02*
X121220000Y-99795000D01*
G75*
G02*
X121420000Y-99595000I200000J0D01*
G01*
X122870000Y-99595000D01*
G75*
G02*
X123070000Y-99795000I0J-200000D01*
G01*
X123070000Y-100245000D01*
G75*
G02*
X122870000Y-100445000I-200000J0D01*
G01*
X121420000Y-100445000D01*
G75*
G02*
X121220000Y-100245000I0J200000D01*
G01*
G37*
G36*
G01*
X121220000Y-99595000D02*
X121220000Y-99145000D01*
G75*
G02*
X121420000Y-98945000I200000J0D01*
G01*
X122870000Y-98945000D01*
G75*
G02*
X123070000Y-99145000I0J-200000D01*
G01*
X123070000Y-99595000D01*
G75*
G02*
X122870000Y-99795000I-200000J0D01*
G01*
X121420000Y-99795000D01*
G75*
G02*
X121220000Y-99595000I0J200000D01*
G01*
G37*
G36*
G01*
X121220000Y-98945000D02*
X121220000Y-98495000D01*
G75*
G02*
X121420000Y-98295000I200000J0D01*
G01*
X122870000Y-98295000D01*
G75*
G02*
X123070000Y-98495000I0J-200000D01*
G01*
X123070000Y-98945000D01*
G75*
G02*
X122870000Y-99145000I-200000J0D01*
G01*
X121420000Y-99145000D01*
G75*
G02*
X121220000Y-98945000I0J200000D01*
G01*
G37*
G36*
G01*
X121220000Y-98295000D02*
X121220000Y-97845000D01*
G75*
G02*
X121420000Y-97645000I200000J0D01*
G01*
X122870000Y-97645000D01*
G75*
G02*
X123070000Y-97845000I0J-200000D01*
G01*
X123070000Y-98295000D01*
G75*
G02*
X122870000Y-98495000I-200000J0D01*
G01*
X121420000Y-98495000D01*
G75*
G02*
X121220000Y-98295000I0J200000D01*
G01*
G37*
G36*
G01*
X121220000Y-97645000D02*
X121220000Y-97195000D01*
G75*
G02*
X121420000Y-96995000I200000J0D01*
G01*
X122870000Y-96995000D01*
G75*
G02*
X123070000Y-97195000I0J-200000D01*
G01*
X123070000Y-97645000D01*
G75*
G02*
X122870000Y-97845000I-200000J0D01*
G01*
X121420000Y-97845000D01*
G75*
G02*
X121220000Y-97645000I0J200000D01*
G01*
G37*
G36*
G01*
X121220000Y-96995000D02*
X121220000Y-96545000D01*
G75*
G02*
X121420000Y-96345000I200000J0D01*
G01*
X122870000Y-96345000D01*
G75*
G02*
X123070000Y-96545000I0J-200000D01*
G01*
X123070000Y-96995000D01*
G75*
G02*
X122870000Y-97195000I-200000J0D01*
G01*
X121420000Y-97195000D01*
G75*
G02*
X121220000Y-96995000I0J200000D01*
G01*
G37*
%TD*%
%TO.C,U3*%
G36*
G01*
X121220000Y-110330000D02*
X121220000Y-109880000D01*
G75*
G02*
X121420000Y-109680000I200000J0D01*
G01*
X122870000Y-109680000D01*
G75*
G02*
X123070000Y-109880000I0J-200000D01*
G01*
X123070000Y-110330000D01*
G75*
G02*
X122870000Y-110530000I-200000J0D01*
G01*
X121420000Y-110530000D01*
G75*
G02*
X121220000Y-110330000I0J200000D01*
G01*
G37*
G36*
G01*
X121220000Y-110980000D02*
X121220000Y-110530000D01*
G75*
G02*
X121420000Y-110330000I200000J0D01*
G01*
X122870000Y-110330000D01*
G75*
G02*
X123070000Y-110530000I0J-200000D01*
G01*
X123070000Y-110980000D01*
G75*
G02*
X122870000Y-111180000I-200000J0D01*
G01*
X121420000Y-111180000D01*
G75*
G02*
X121220000Y-110980000I0J200000D01*
G01*
G37*
G36*
G01*
X121220000Y-111630000D02*
X121220000Y-111180000D01*
G75*
G02*
X121420000Y-110980000I200000J0D01*
G01*
X122870000Y-110980000D01*
G75*
G02*
X123070000Y-111180000I0J-200000D01*
G01*
X123070000Y-111630000D01*
G75*
G02*
X122870000Y-111830000I-200000J0D01*
G01*
X121420000Y-111830000D01*
G75*
G02*
X121220000Y-111630000I0J200000D01*
G01*
G37*
G36*
G01*
X121220000Y-112280000D02*
X121220000Y-111830000D01*
G75*
G02*
X121420000Y-111630000I200000J0D01*
G01*
X122870000Y-111630000D01*
G75*
G02*
X123070000Y-111830000I0J-200000D01*
G01*
X123070000Y-112280000D01*
G75*
G02*
X122870000Y-112480000I-200000J0D01*
G01*
X121420000Y-112480000D01*
G75*
G02*
X121220000Y-112280000I0J200000D01*
G01*
G37*
G36*
G01*
X121220000Y-112930000D02*
X121220000Y-112480000D01*
G75*
G02*
X121420000Y-112280000I200000J0D01*
G01*
X122870000Y-112280000D01*
G75*
G02*
X123070000Y-112480000I0J-200000D01*
G01*
X123070000Y-112930000D01*
G75*
G02*
X122870000Y-113130000I-200000J0D01*
G01*
X121420000Y-113130000D01*
G75*
G02*
X121220000Y-112930000I0J200000D01*
G01*
G37*
G36*
G01*
X121220000Y-113580000D02*
X121220000Y-113130000D01*
G75*
G02*
X121420000Y-112930000I200000J0D01*
G01*
X122870000Y-112930000D01*
G75*
G02*
X123070000Y-113130000I0J-200000D01*
G01*
X123070000Y-113580000D01*
G75*
G02*
X122870000Y-113780000I-200000J0D01*
G01*
X121420000Y-113780000D01*
G75*
G02*
X121220000Y-113580000I0J200000D01*
G01*
G37*
G36*
G01*
X121220000Y-114230000D02*
X121220000Y-113780000D01*
G75*
G02*
X121420000Y-113580000I200000J0D01*
G01*
X122870000Y-113580000D01*
G75*
G02*
X123070000Y-113780000I0J-200000D01*
G01*
X123070000Y-114230000D01*
G75*
G02*
X122870000Y-114430000I-200000J0D01*
G01*
X121420000Y-114430000D01*
G75*
G02*
X121220000Y-114230000I0J200000D01*
G01*
G37*
G36*
G01*
X121220000Y-114880000D02*
X121220000Y-114430000D01*
G75*
G02*
X121420000Y-114230000I200000J0D01*
G01*
X122870000Y-114230000D01*
G75*
G02*
X123070000Y-114430000I0J-200000D01*
G01*
X123070000Y-114880000D01*
G75*
G02*
X122870000Y-115080000I-200000J0D01*
G01*
X121420000Y-115080000D01*
G75*
G02*
X121220000Y-114880000I0J200000D01*
G01*
G37*
G36*
G01*
X121220000Y-115530000D02*
X121220000Y-115080000D01*
G75*
G02*
X121420000Y-114880000I200000J0D01*
G01*
X122870000Y-114880000D01*
G75*
G02*
X123070000Y-115080000I0J-200000D01*
G01*
X123070000Y-115530000D01*
G75*
G02*
X122870000Y-115730000I-200000J0D01*
G01*
X121420000Y-115730000D01*
G75*
G02*
X121220000Y-115530000I0J200000D01*
G01*
G37*
G36*
G01*
X121220000Y-116180000D02*
X121220000Y-115730000D01*
G75*
G02*
X121420000Y-115530000I200000J0D01*
G01*
X122870000Y-115530000D01*
G75*
G02*
X123070000Y-115730000I0J-200000D01*
G01*
X123070000Y-116180000D01*
G75*
G02*
X122870000Y-116380000I-200000J0D01*
G01*
X121420000Y-116380000D01*
G75*
G02*
X121220000Y-116180000I0J200000D01*
G01*
G37*
G36*
G01*
X127120000Y-116180000D02*
X127120000Y-115730000D01*
G75*
G02*
X127320000Y-115530000I200000J0D01*
G01*
X128770000Y-115530000D01*
G75*
G02*
X128970000Y-115730000I0J-200000D01*
G01*
X128970000Y-116180000D01*
G75*
G02*
X128770000Y-116380000I-200000J0D01*
G01*
X127320000Y-116380000D01*
G75*
G02*
X127120000Y-116180000I0J200000D01*
G01*
G37*
G36*
G01*
X127120000Y-115530000D02*
X127120000Y-115080000D01*
G75*
G02*
X127320000Y-114880000I200000J0D01*
G01*
X128770000Y-114880000D01*
G75*
G02*
X128970000Y-115080000I0J-200000D01*
G01*
X128970000Y-115530000D01*
G75*
G02*
X128770000Y-115730000I-200000J0D01*
G01*
X127320000Y-115730000D01*
G75*
G02*
X127120000Y-115530000I0J200000D01*
G01*
G37*
G36*
G01*
X127120000Y-114880000D02*
X127120000Y-114430000D01*
G75*
G02*
X127320000Y-114230000I200000J0D01*
G01*
X128770000Y-114230000D01*
G75*
G02*
X128970000Y-114430000I0J-200000D01*
G01*
X128970000Y-114880000D01*
G75*
G02*
X128770000Y-115080000I-200000J0D01*
G01*
X127320000Y-115080000D01*
G75*
G02*
X127120000Y-114880000I0J200000D01*
G01*
G37*
G36*
G01*
X127120000Y-114230000D02*
X127120000Y-113780000D01*
G75*
G02*
X127320000Y-113580000I200000J0D01*
G01*
X128770000Y-113580000D01*
G75*
G02*
X128970000Y-113780000I0J-200000D01*
G01*
X128970000Y-114230000D01*
G75*
G02*
X128770000Y-114430000I-200000J0D01*
G01*
X127320000Y-114430000D01*
G75*
G02*
X127120000Y-114230000I0J200000D01*
G01*
G37*
G36*
G01*
X127120000Y-113580000D02*
X127120000Y-113130000D01*
G75*
G02*
X127320000Y-112930000I200000J0D01*
G01*
X128770000Y-112930000D01*
G75*
G02*
X128970000Y-113130000I0J-200000D01*
G01*
X128970000Y-113580000D01*
G75*
G02*
X128770000Y-113780000I-200000J0D01*
G01*
X127320000Y-113780000D01*
G75*
G02*
X127120000Y-113580000I0J200000D01*
G01*
G37*
G36*
G01*
X127120000Y-112930000D02*
X127120000Y-112480000D01*
G75*
G02*
X127320000Y-112280000I200000J0D01*
G01*
X128770000Y-112280000D01*
G75*
G02*
X128970000Y-112480000I0J-200000D01*
G01*
X128970000Y-112930000D01*
G75*
G02*
X128770000Y-113130000I-200000J0D01*
G01*
X127320000Y-113130000D01*
G75*
G02*
X127120000Y-112930000I0J200000D01*
G01*
G37*
G36*
G01*
X127120000Y-112280000D02*
X127120000Y-111830000D01*
G75*
G02*
X127320000Y-111630000I200000J0D01*
G01*
X128770000Y-111630000D01*
G75*
G02*
X128970000Y-111830000I0J-200000D01*
G01*
X128970000Y-112280000D01*
G75*
G02*
X128770000Y-112480000I-200000J0D01*
G01*
X127320000Y-112480000D01*
G75*
G02*
X127120000Y-112280000I0J200000D01*
G01*
G37*
G36*
G01*
X127120000Y-111630000D02*
X127120000Y-111180000D01*
G75*
G02*
X127320000Y-110980000I200000J0D01*
G01*
X128770000Y-110980000D01*
G75*
G02*
X128970000Y-111180000I0J-200000D01*
G01*
X128970000Y-111630000D01*
G75*
G02*
X128770000Y-111830000I-200000J0D01*
G01*
X127320000Y-111830000D01*
G75*
G02*
X127120000Y-111630000I0J200000D01*
G01*
G37*
G36*
G01*
X127120000Y-110980000D02*
X127120000Y-110530000D01*
G75*
G02*
X127320000Y-110330000I200000J0D01*
G01*
X128770000Y-110330000D01*
G75*
G02*
X128970000Y-110530000I0J-200000D01*
G01*
X128970000Y-110980000D01*
G75*
G02*
X128770000Y-111180000I-200000J0D01*
G01*
X127320000Y-111180000D01*
G75*
G02*
X127120000Y-110980000I0J200000D01*
G01*
G37*
G36*
G01*
X127120000Y-110330000D02*
X127120000Y-109880000D01*
G75*
G02*
X127320000Y-109680000I200000J0D01*
G01*
X128770000Y-109680000D01*
G75*
G02*
X128970000Y-109880000I0J-200000D01*
G01*
X128970000Y-110330000D01*
G75*
G02*
X128770000Y-110530000I-200000J0D01*
G01*
X127320000Y-110530000D01*
G75*
G02*
X127120000Y-110330000I0J200000D01*
G01*
G37*
%TD*%
%TO.C,JRaspberryPiZero1*%
G36*
G01*
X138650000Y-66890000D02*
X138650000Y-65190000D01*
G75*
G02*
X138850000Y-64990000I200000J0D01*
G01*
X140550000Y-64990000D01*
G75*
G02*
X140750000Y-65190000I0J-200000D01*
G01*
X140750000Y-66890000D01*
G75*
G02*
X140550000Y-67090000I-200000J0D01*
G01*
X138850000Y-67090000D01*
G75*
G02*
X138650000Y-66890000I0J200000D01*
G01*
G37*
X137160000Y-66040000D03*
X139700000Y-68580000D03*
X137160000Y-68580000D03*
X139700000Y-71120000D03*
X137160000Y-71120000D03*
X139700000Y-73660000D03*
X137160000Y-73660000D03*
X139700000Y-76200000D03*
X137160000Y-76200000D03*
X139700000Y-78740000D03*
X137160000Y-78740000D03*
X139700000Y-81280000D03*
X137160000Y-81280000D03*
X139700000Y-83820000D03*
X137160000Y-83820000D03*
X139700000Y-86360000D03*
X137160000Y-86360000D03*
X139700000Y-88900000D03*
X137160000Y-88900000D03*
X139700000Y-91440000D03*
X137160000Y-91440000D03*
X139700000Y-93980000D03*
X137160000Y-93980000D03*
X139700000Y-96520000D03*
X137160000Y-96520000D03*
X139700000Y-99060000D03*
X137160000Y-99060000D03*
X139700000Y-101600000D03*
X137160000Y-101600000D03*
X139700000Y-104140000D03*
X137160000Y-104140000D03*
X139700000Y-106680000D03*
X137160000Y-106680000D03*
X139700000Y-109220000D03*
X137160000Y-109220000D03*
X139700000Y-111760000D03*
X137160000Y-111760000D03*
X139700000Y-114300000D03*
X137160000Y-114300000D03*
%TD*%
%TO.C,JMainBoard2*%
X134620000Y-119380000D03*
X134620000Y-116840000D03*
X134620000Y-114300000D03*
X134620000Y-111760000D03*
X134620000Y-109220000D03*
X134620000Y-106680000D03*
X134620000Y-104140000D03*
X134620000Y-101600000D03*
X134620000Y-99060000D03*
X134620000Y-96520000D03*
X134620000Y-93980000D03*
X134620000Y-91440000D03*
X134620000Y-88900000D03*
X134620000Y-86360000D03*
X134620000Y-83820000D03*
X134620000Y-81280000D03*
X134620000Y-78740000D03*
X134620000Y-76200000D03*
X134620000Y-73660000D03*
X134620000Y-71120000D03*
X134620000Y-68580000D03*
X134620000Y-66040000D03*
X134620000Y-63500000D03*
G36*
G01*
X135670000Y-60110000D02*
X135670000Y-61810000D01*
G75*
G02*
X135470000Y-62010000I-200000J0D01*
G01*
X133770000Y-62010000D01*
G75*
G02*
X133570000Y-61810000I0J200000D01*
G01*
X133570000Y-60110000D01*
G75*
G02*
X133770000Y-59910000I200000J0D01*
G01*
X135470000Y-59910000D01*
G75*
G02*
X135670000Y-60110000I0J-200000D01*
G01*
G37*
%TD*%
%TO.C,JDenise1*%
G36*
G01*
X115840000Y-61760000D02*
X115840000Y-60160000D01*
G75*
G02*
X116040000Y-59960000I200000J0D01*
G01*
X117640000Y-59960000D01*
G75*
G02*
X117840000Y-60160000I0J-200000D01*
G01*
X117840000Y-61760000D01*
G75*
G02*
X117640000Y-61960000I-200000J0D01*
G01*
X116040000Y-61960000D01*
G75*
G02*
X115840000Y-61760000I0J200000D01*
G01*
G37*
D11*
X132080000Y-88900000D03*
X116840000Y-63500000D03*
X132080000Y-86360000D03*
X116840000Y-66040000D03*
X132080000Y-83820000D03*
X116840000Y-68580000D03*
X132080000Y-81280000D03*
X116840000Y-71120000D03*
X132080000Y-78740000D03*
X116840000Y-73660000D03*
X132080000Y-76200000D03*
X116840000Y-76200000D03*
X132080000Y-73660000D03*
X116840000Y-78740000D03*
X132080000Y-71120000D03*
X116840000Y-81280000D03*
X132080000Y-68580000D03*
X116840000Y-83820000D03*
X132080000Y-66040000D03*
X116840000Y-86360000D03*
X132080000Y-63500000D03*
X116840000Y-88900000D03*
X132080000Y-60960000D03*
%TD*%
%TO.C,JDenise2*%
X132080000Y-91440000D03*
X116840000Y-119380000D03*
X132080000Y-93980000D03*
X116840000Y-116840000D03*
X132080000Y-96520000D03*
X116840000Y-114300000D03*
X132080000Y-99060000D03*
X116840000Y-111760000D03*
X132080000Y-101600000D03*
X116840000Y-109220000D03*
X132080000Y-104140000D03*
X116840000Y-106680000D03*
X132080000Y-106680000D03*
X116840000Y-104140000D03*
X132080000Y-109220000D03*
X116840000Y-101600000D03*
X132080000Y-111760000D03*
X116840000Y-99060000D03*
X132080000Y-114300000D03*
X116840000Y-96520000D03*
X132080000Y-116840000D03*
X116840000Y-93980000D03*
X132080000Y-119380000D03*
G36*
G01*
X115840000Y-92240000D02*
X115840000Y-90640000D01*
G75*
G02*
X116040000Y-90440000I200000J0D01*
G01*
X117640000Y-90440000D01*
G75*
G02*
X117840000Y-90640000I0J-200000D01*
G01*
X117840000Y-92240000D01*
G75*
G02*
X117640000Y-92440000I-200000J0D01*
G01*
X116040000Y-92440000D01*
G75*
G02*
X115840000Y-92240000I0J200000D01*
G01*
G37*
%TD*%
D10*
%TO.C,JButton1*%
X137160000Y-119380000D03*
G36*
G01*
X136110000Y-117690000D02*
X136110000Y-115990000D01*
G75*
G02*
X136310000Y-115790000I200000J0D01*
G01*
X138010000Y-115790000D01*
G75*
G02*
X138210000Y-115990000I0J-200000D01*
G01*
X138210000Y-117690000D01*
G75*
G02*
X138010000Y-117890000I-200000J0D01*
G01*
X136310000Y-117890000D01*
G75*
G02*
X136110000Y-117690000I0J200000D01*
G01*
G37*
%TD*%
M02*
