%TF.GenerationSoftware,KiCad,Pcbnew,(5.1.8)-1*%
%TF.CreationDate,2021-02-07T10:27:01+01:00*%
%TF.ProjectId,deniseadapter,64656e69-7365-4616-9461-707465722e6b,rev?*%
%TF.SameCoordinates,Original*%
%TF.FileFunction,Legend,Top*%
%TF.FilePolarity,Positive*%
%FSLAX46Y46*%
G04 Gerber Fmt 4.6, Leading zero omitted, Abs format (unit mm)*
G04 Created by KiCad (PCBNEW (5.1.8)-1) date 2021-02-07 10:27:01*
%MOMM*%
%LPD*%
G01*
G04 APERTURE LIST*
%ADD10C,0.300000*%
%ADD11C,0.120000*%
%ADD12C,0.150000*%
G04 APERTURE END LIST*
D10*
X137894000Y-61633571D02*
X137394000Y-60919285D01*
X137036857Y-61633571D02*
X137036857Y-60133571D01*
X137608285Y-60133571D01*
X137751142Y-60205000D01*
X137822571Y-60276428D01*
X137894000Y-60419285D01*
X137894000Y-60633571D01*
X137822571Y-60776428D01*
X137751142Y-60847857D01*
X137608285Y-60919285D01*
X137036857Y-60919285D01*
X138536857Y-61633571D02*
X138536857Y-60133571D01*
X139108285Y-60133571D01*
X139251142Y-60205000D01*
X139322571Y-60276428D01*
X139394000Y-60419285D01*
X139394000Y-60633571D01*
X139322571Y-60776428D01*
X139251142Y-60847857D01*
X139108285Y-60919285D01*
X138536857Y-60919285D01*
X140036857Y-61633571D02*
X140036857Y-60633571D01*
X140036857Y-60133571D02*
X139965428Y-60205000D01*
X140036857Y-60276428D01*
X140108285Y-60205000D01*
X140036857Y-60133571D01*
X140036857Y-60276428D01*
X140108285Y-64183571D02*
X139251142Y-64183571D01*
X139679714Y-64183571D02*
X139679714Y-62683571D01*
X139536857Y-62897857D01*
X139394000Y-63040714D01*
X139251142Y-63112142D01*
D11*
%TO.C,U1*%
X125730000Y-87620000D02*
X127680000Y-87620000D01*
X125730000Y-87620000D02*
X123780000Y-87620000D01*
X125730000Y-78750000D02*
X127680000Y-78750000D01*
X125730000Y-78750000D02*
X122280000Y-78750000D01*
%TO.C,C3*%
X125202836Y-108945000D02*
X124987164Y-108945000D01*
X125202836Y-108225000D02*
X124987164Y-108225000D01*
%TO.C,C2*%
X124567836Y-95356000D02*
X124352164Y-95356000D01*
X124567836Y-94636000D02*
X124352164Y-94636000D01*
%TO.C,C1*%
X125840836Y-78020500D02*
X125625164Y-78020500D01*
X125840836Y-77300500D02*
X125625164Y-77300500D01*
%TO.C,R1*%
X128423641Y-75310000D02*
X128116359Y-75310000D01*
X128423641Y-74550000D02*
X128116359Y-74550000D01*
%TO.C,C4*%
X124709580Y-73743300D02*
X124428420Y-73743300D01*
X124709580Y-72723300D02*
X124428420Y-72723300D01*
%TO.C,U4*%
X129249000Y-64973300D02*
X127989000Y-64973300D01*
X122429000Y-64973300D02*
X123689000Y-64973300D01*
X129249000Y-68733300D02*
X129249000Y-64973300D01*
X122429000Y-70983300D02*
X122429000Y-64973300D01*
D12*
%TO.C,U2*%
X122870000Y-103145000D02*
X127320000Y-103145000D01*
X121345000Y-96245000D02*
X127320000Y-96245000D01*
%TO.C,U3*%
X121345000Y-109580000D02*
X127320000Y-109580000D01*
X122870000Y-116480000D02*
X127320000Y-116480000D01*
D11*
%TO.C,JRaspberryPiZero1*%
X139700000Y-64710000D02*
X141030000Y-64710000D01*
X141030000Y-64710000D02*
X141030000Y-66040000D01*
X138430000Y-64710000D02*
X138430000Y-67310000D01*
X138430000Y-67310000D02*
X141030000Y-67310000D01*
X141030000Y-67310000D02*
X141030000Y-115630000D01*
X135830000Y-115630000D02*
X141030000Y-115630000D01*
X135830000Y-64710000D02*
X135830000Y-115630000D01*
X135830000Y-64710000D02*
X138430000Y-64710000D01*
%TO.C,JDenise1*%
X133410000Y-59570000D02*
X115510000Y-59570000D01*
X133410000Y-90290000D02*
X133410000Y-59570000D01*
X115510000Y-90290000D02*
X133410000Y-90290000D01*
X115510000Y-59570000D02*
X115510000Y-90290000D01*
X130920000Y-59630000D02*
X125460000Y-59630000D01*
X130920000Y-90230000D02*
X130920000Y-59630000D01*
X118000000Y-90230000D02*
X130920000Y-90230000D01*
X118000000Y-59630000D02*
X118000000Y-90230000D01*
X123460000Y-59630000D02*
X118000000Y-59630000D01*
X125460000Y-59630000D02*
G75*
G02*
X123460000Y-59630000I-1000000J0D01*
G01*
%TO.C,JDenise2*%
X123460000Y-90110000D02*
X118000000Y-90110000D01*
X118000000Y-90110000D02*
X118000000Y-120710000D01*
X118000000Y-120710000D02*
X130920000Y-120710000D01*
X130920000Y-120710000D02*
X130920000Y-90110000D01*
X130920000Y-90110000D02*
X125460000Y-90110000D01*
X115510000Y-90050000D02*
X115510000Y-120770000D01*
X115510000Y-120770000D02*
X133410000Y-120770000D01*
X133410000Y-120770000D02*
X133410000Y-90050000D01*
X133410000Y-90050000D02*
X115510000Y-90050000D01*
X125460000Y-90110000D02*
G75*
G02*
X123460000Y-90110000I-1000000J0D01*
G01*
%TO.C,JButton1*%
X138600000Y-115510000D02*
X138600000Y-120710000D01*
X138600000Y-120710000D02*
X141260000Y-120710000D01*
X141260000Y-120710000D02*
X141260000Y-115510000D01*
X141260000Y-115510000D02*
X138600000Y-115510000D01*
X141260000Y-116460000D02*
X147260000Y-116460000D01*
X147260000Y-116460000D02*
X147260000Y-117220000D01*
X147260000Y-117220000D02*
X141260000Y-117220000D01*
X141260000Y-116520000D02*
X147260000Y-116520000D01*
X141260000Y-116640000D02*
X147260000Y-116640000D01*
X141260000Y-116760000D02*
X147260000Y-116760000D01*
X141260000Y-116880000D02*
X147260000Y-116880000D01*
X141260000Y-117000000D02*
X147260000Y-117000000D01*
X141260000Y-117120000D02*
X147260000Y-117120000D01*
X138270000Y-116460000D02*
X138600000Y-116460000D01*
X138270000Y-117220000D02*
X138600000Y-117220000D01*
X138600000Y-118110000D02*
X141260000Y-118110000D01*
X141260000Y-119000000D02*
X147260000Y-119000000D01*
X147260000Y-119000000D02*
X147260000Y-119760000D01*
X147260000Y-119760000D02*
X141260000Y-119760000D01*
X138202929Y-119000000D02*
X138600000Y-119000000D01*
X138202929Y-119760000D02*
X138600000Y-119760000D01*
X135890000Y-116840000D02*
X135890000Y-115570000D01*
X135890000Y-115570000D02*
X137160000Y-115570000D01*
%TO.C,U1*%
D12*
X124955395Y-88090760D02*
X124955395Y-88900284D01*
X125003014Y-88995522D01*
X125050633Y-89043141D01*
X125145871Y-89090760D01*
X125336347Y-89090760D01*
X125431585Y-89043141D01*
X125479204Y-88995522D01*
X125526823Y-88900284D01*
X125526823Y-88090760D01*
X126526823Y-89090760D02*
X125955395Y-89090760D01*
X126241109Y-89090760D02*
X126241109Y-88090760D01*
X126145871Y-88233618D01*
X126050633Y-88328856D01*
X125955395Y-88376475D01*
%TO.C,C3*%
X126728393Y-108842620D02*
X126695060Y-108875953D01*
X126595060Y-108909286D01*
X126528393Y-108909286D01*
X126428393Y-108875953D01*
X126361726Y-108809286D01*
X126328393Y-108742620D01*
X126295060Y-108609286D01*
X126295060Y-108509286D01*
X126328393Y-108375953D01*
X126361726Y-108309286D01*
X126428393Y-108242620D01*
X126528393Y-108209286D01*
X126595060Y-108209286D01*
X126695060Y-108242620D01*
X126728393Y-108275953D01*
X126961726Y-108209286D02*
X127395060Y-108209286D01*
X127161726Y-108475953D01*
X127261726Y-108475953D01*
X127328393Y-108509286D01*
X127361726Y-108542620D01*
X127395060Y-108609286D01*
X127395060Y-108775953D01*
X127361726Y-108842620D01*
X127328393Y-108875953D01*
X127261726Y-108909286D01*
X127061726Y-108909286D01*
X126995060Y-108875953D01*
X126961726Y-108842620D01*
%TO.C,C2*%
X126200073Y-95243460D02*
X126166740Y-95276793D01*
X126066740Y-95310126D01*
X126000073Y-95310126D01*
X125900073Y-95276793D01*
X125833406Y-95210126D01*
X125800073Y-95143460D01*
X125766740Y-95010126D01*
X125766740Y-94910126D01*
X125800073Y-94776793D01*
X125833406Y-94710126D01*
X125900073Y-94643460D01*
X126000073Y-94610126D01*
X126066740Y-94610126D01*
X126166740Y-94643460D01*
X126200073Y-94676793D01*
X126466740Y-94676793D02*
X126500073Y-94643460D01*
X126566740Y-94610126D01*
X126733406Y-94610126D01*
X126800073Y-94643460D01*
X126833406Y-94676793D01*
X126866740Y-94743460D01*
X126866740Y-94810126D01*
X126833406Y-94910126D01*
X126433406Y-95310126D01*
X126866740Y-95310126D01*
%TO.C,C1*%
X127384173Y-77918120D02*
X127350840Y-77951453D01*
X127250840Y-77984786D01*
X127184173Y-77984786D01*
X127084173Y-77951453D01*
X127017506Y-77884786D01*
X126984173Y-77818120D01*
X126950840Y-77684786D01*
X126950840Y-77584786D01*
X126984173Y-77451453D01*
X127017506Y-77384786D01*
X127084173Y-77318120D01*
X127184173Y-77284786D01*
X127250840Y-77284786D01*
X127350840Y-77318120D01*
X127384173Y-77351453D01*
X128050840Y-77984786D02*
X127650840Y-77984786D01*
X127850840Y-77984786D02*
X127850840Y-77284786D01*
X127784173Y-77384786D01*
X127717506Y-77451453D01*
X127650840Y-77484786D01*
%TO.C,R1*%
X128103333Y-76552380D02*
X127770000Y-76076190D01*
X127531904Y-76552380D02*
X127531904Y-75552380D01*
X127912857Y-75552380D01*
X128008095Y-75600000D01*
X128055714Y-75647619D01*
X128103333Y-75742857D01*
X128103333Y-75885714D01*
X128055714Y-75980952D01*
X128008095Y-76028571D01*
X127912857Y-76076190D01*
X127531904Y-76076190D01*
X129055714Y-76552380D02*
X128484285Y-76552380D01*
X128770000Y-76552380D02*
X128770000Y-75552380D01*
X128674761Y-75695238D01*
X128579523Y-75790476D01*
X128484285Y-75838095D01*
%TO.C,C4*%
X126972813Y-73590442D02*
X126925194Y-73638061D01*
X126782337Y-73685680D01*
X126687099Y-73685680D01*
X126544241Y-73638061D01*
X126449003Y-73542823D01*
X126401384Y-73447585D01*
X126353765Y-73257109D01*
X126353765Y-73114252D01*
X126401384Y-72923776D01*
X126449003Y-72828538D01*
X126544241Y-72733300D01*
X126687099Y-72685680D01*
X126782337Y-72685680D01*
X126925194Y-72733300D01*
X126972813Y-72780919D01*
X127829956Y-73019014D02*
X127829956Y-73685680D01*
X127591860Y-72638061D02*
X127353765Y-73352347D01*
X127972813Y-73352347D01*
%TO.C,U4*%
X121533795Y-63394360D02*
X121533795Y-64203884D01*
X121581414Y-64299122D01*
X121629033Y-64346741D01*
X121724271Y-64394360D01*
X121914747Y-64394360D01*
X122009985Y-64346741D01*
X122057604Y-64299122D01*
X122105223Y-64203884D01*
X122105223Y-63394360D01*
X123009985Y-63727694D02*
X123009985Y-64394360D01*
X122771890Y-63346741D02*
X122533795Y-64061027D01*
X123152842Y-64061027D01*
%TO.C,U2*%
X120904095Y-94702380D02*
X120904095Y-95511904D01*
X120951714Y-95607142D01*
X120999333Y-95654761D01*
X121094571Y-95702380D01*
X121285047Y-95702380D01*
X121380285Y-95654761D01*
X121427904Y-95607142D01*
X121475523Y-95511904D01*
X121475523Y-94702380D01*
X121904095Y-94797619D02*
X121951714Y-94750000D01*
X122046952Y-94702380D01*
X122285047Y-94702380D01*
X122380285Y-94750000D01*
X122427904Y-94797619D01*
X122475523Y-94892857D01*
X122475523Y-94988095D01*
X122427904Y-95130952D01*
X121856476Y-95702380D01*
X122475523Y-95702380D01*
%TO.C,U3*%
X121539095Y-108291380D02*
X121539095Y-109100904D01*
X121586714Y-109196142D01*
X121634333Y-109243761D01*
X121729571Y-109291380D01*
X121920047Y-109291380D01*
X122015285Y-109243761D01*
X122062904Y-109196142D01*
X122110523Y-109100904D01*
X122110523Y-108291380D01*
X122491476Y-108291380D02*
X123110523Y-108291380D01*
X122777190Y-108672333D01*
X122920047Y-108672333D01*
X123015285Y-108719952D01*
X123062904Y-108767571D01*
X123110523Y-108862809D01*
X123110523Y-109100904D01*
X123062904Y-109196142D01*
X123015285Y-109243761D01*
X122920047Y-109291380D01*
X122634333Y-109291380D01*
X122539095Y-109243761D01*
X122491476Y-109196142D01*
%TD*%
M02*
