%TF.GenerationSoftware,KiCad,Pcbnew,(5.1.8)-1*%
%TF.CreationDate,2021-02-07T10:27:01+01:00*%
%TF.ProjectId,deniseadapter,64656e69-7365-4616-9461-707465722e6b,rev?*%
%TF.SameCoordinates,Original*%
%TF.FileFunction,Soldermask,Bot*%
%TF.FilePolarity,Negative*%
%FSLAX46Y46*%
G04 Gerber Fmt 4.6, Leading zero omitted, Abs format (unit mm)*
G04 Created by KiCad (PCBNEW (5.1.8)-1) date 2021-02-07 10:27:01*
%MOMM*%
%LPD*%
G01*
G04 APERTURE LIST*
%ADD10C,0.100000*%
%ADD11O,2.100000X2.100000*%
%ADD12O,2.000000X2.000000*%
G04 APERTURE END LIST*
%TO.C,JP1*%
G36*
G01*
X126501000Y-87530200D02*
X126501000Y-89030200D01*
G75*
G02*
X126301000Y-89230200I-200000J0D01*
G01*
X125301000Y-89230200D01*
G75*
G02*
X125101000Y-89030200I0J200000D01*
G01*
X125101000Y-87530200D01*
G75*
G02*
X125301000Y-87330200I200000J0D01*
G01*
X126301000Y-87330200D01*
G75*
G02*
X126501000Y-87530200I0J-200000D01*
G01*
G37*
D10*
G36*
X124494888Y-89229598D02*
G01*
X124476466Y-89229598D01*
X124456860Y-89228635D01*
X124408029Y-89223825D01*
X124388620Y-89220946D01*
X124340495Y-89211374D01*
X124321452Y-89206604D01*
X124274497Y-89192360D01*
X124256020Y-89185749D01*
X124210687Y-89166972D01*
X124192939Y-89158577D01*
X124149666Y-89135446D01*
X124132838Y-89125360D01*
X124092039Y-89098100D01*
X124076270Y-89086405D01*
X124038341Y-89055277D01*
X124023800Y-89042097D01*
X123989103Y-89007400D01*
X123975923Y-88992859D01*
X123944795Y-88954930D01*
X123933100Y-88939161D01*
X123905840Y-88898362D01*
X123895754Y-88881534D01*
X123872623Y-88838261D01*
X123864228Y-88820513D01*
X123845451Y-88775180D01*
X123838840Y-88756703D01*
X123824596Y-88709748D01*
X123819826Y-88690705D01*
X123810254Y-88642580D01*
X123807375Y-88623171D01*
X123802565Y-88574340D01*
X123801602Y-88554734D01*
X123801602Y-88536312D01*
X123801000Y-88530200D01*
X123801000Y-88030200D01*
X123801602Y-88024088D01*
X123801602Y-88005666D01*
X123802565Y-87986060D01*
X123807375Y-87937229D01*
X123810254Y-87917820D01*
X123819826Y-87869695D01*
X123824596Y-87850652D01*
X123838840Y-87803697D01*
X123845451Y-87785220D01*
X123864228Y-87739887D01*
X123872623Y-87722139D01*
X123895754Y-87678866D01*
X123905840Y-87662038D01*
X123933100Y-87621239D01*
X123944795Y-87605470D01*
X123975923Y-87567541D01*
X123989103Y-87553000D01*
X124023800Y-87518303D01*
X124038341Y-87505123D01*
X124076270Y-87473995D01*
X124092039Y-87462300D01*
X124132838Y-87435040D01*
X124149666Y-87424954D01*
X124192939Y-87401823D01*
X124210687Y-87393428D01*
X124256020Y-87374651D01*
X124274497Y-87368040D01*
X124321452Y-87353796D01*
X124340495Y-87349026D01*
X124388620Y-87339454D01*
X124408029Y-87336575D01*
X124456860Y-87331765D01*
X124476466Y-87330802D01*
X124494888Y-87330802D01*
X124501000Y-87330200D01*
X125051000Y-87330200D01*
X125090018Y-87334043D01*
X125127537Y-87345424D01*
X125162114Y-87363906D01*
X125192421Y-87388779D01*
X125217294Y-87419086D01*
X125235776Y-87453663D01*
X125247157Y-87491182D01*
X125251000Y-87530200D01*
X125251000Y-89030200D01*
X125247157Y-89069218D01*
X125235776Y-89106737D01*
X125217294Y-89141314D01*
X125192421Y-89171621D01*
X125162114Y-89196494D01*
X125127537Y-89214976D01*
X125090018Y-89226357D01*
X125051000Y-89230200D01*
X124501000Y-89230200D01*
X124494888Y-89229598D01*
G37*
G36*
X126511982Y-89226357D02*
G01*
X126474463Y-89214976D01*
X126439886Y-89196494D01*
X126409579Y-89171621D01*
X126384706Y-89141314D01*
X126366224Y-89106737D01*
X126354843Y-89069218D01*
X126351000Y-89030200D01*
X126351000Y-87530200D01*
X126354843Y-87491182D01*
X126366224Y-87453663D01*
X126384706Y-87419086D01*
X126409579Y-87388779D01*
X126439886Y-87363906D01*
X126474463Y-87345424D01*
X126511982Y-87334043D01*
X126551000Y-87330200D01*
X127101000Y-87330200D01*
X127107112Y-87330802D01*
X127125534Y-87330802D01*
X127145140Y-87331765D01*
X127193971Y-87336575D01*
X127213380Y-87339454D01*
X127261505Y-87349026D01*
X127280548Y-87353796D01*
X127327503Y-87368040D01*
X127345980Y-87374651D01*
X127391313Y-87393428D01*
X127409061Y-87401823D01*
X127452334Y-87424954D01*
X127469162Y-87435040D01*
X127509961Y-87462300D01*
X127525730Y-87473995D01*
X127563659Y-87505123D01*
X127578200Y-87518303D01*
X127612897Y-87553000D01*
X127626077Y-87567541D01*
X127657205Y-87605470D01*
X127668900Y-87621239D01*
X127696160Y-87662038D01*
X127706246Y-87678866D01*
X127729377Y-87722139D01*
X127737772Y-87739887D01*
X127756549Y-87785220D01*
X127763160Y-87803697D01*
X127777404Y-87850652D01*
X127782174Y-87869695D01*
X127791746Y-87917820D01*
X127794625Y-87937229D01*
X127799435Y-87986060D01*
X127800398Y-88005666D01*
X127800398Y-88024088D01*
X127801000Y-88030200D01*
X127801000Y-88530200D01*
X127800398Y-88536312D01*
X127800398Y-88554734D01*
X127799435Y-88574340D01*
X127794625Y-88623171D01*
X127791746Y-88642580D01*
X127782174Y-88690705D01*
X127777404Y-88709748D01*
X127763160Y-88756703D01*
X127756549Y-88775180D01*
X127737772Y-88820513D01*
X127729377Y-88838261D01*
X127706246Y-88881534D01*
X127696160Y-88898362D01*
X127668900Y-88939161D01*
X127657205Y-88954930D01*
X127626077Y-88992859D01*
X127612897Y-89007400D01*
X127578200Y-89042097D01*
X127563659Y-89055277D01*
X127525730Y-89086405D01*
X127509961Y-89098100D01*
X127469162Y-89125360D01*
X127452334Y-89135446D01*
X127409061Y-89158577D01*
X127391313Y-89166972D01*
X127345980Y-89185749D01*
X127327503Y-89192360D01*
X127280548Y-89206604D01*
X127261505Y-89211374D01*
X127213380Y-89220946D01*
X127193971Y-89223825D01*
X127145140Y-89228635D01*
X127125534Y-89229598D01*
X127107112Y-89229598D01*
X127101000Y-89230200D01*
X126551000Y-89230200D01*
X126511982Y-89226357D01*
G37*
%TD*%
%TO.C,JMainBoard1*%
G36*
G01*
X120430000Y-60110000D02*
X120430000Y-61810000D01*
G75*
G02*
X120230000Y-62010000I-200000J0D01*
G01*
X118530000Y-62010000D01*
G75*
G02*
X118330000Y-61810000I0J200000D01*
G01*
X118330000Y-60110000D01*
G75*
G02*
X118530000Y-59910000I200000J0D01*
G01*
X120230000Y-59910000D01*
G75*
G02*
X120430000Y-60110000I0J-200000D01*
G01*
G37*
D11*
X119380000Y-63500000D03*
X119380000Y-66040000D03*
X119380000Y-68580000D03*
X119380000Y-71120000D03*
X119380000Y-73660000D03*
X119380000Y-76200000D03*
X119380000Y-78740000D03*
X119380000Y-81280000D03*
X119380000Y-83820000D03*
X119380000Y-86360000D03*
X119380000Y-88900000D03*
X119380000Y-91440000D03*
X119380000Y-93980000D03*
X119380000Y-96520000D03*
X119380000Y-99060000D03*
X119380000Y-101600000D03*
X119380000Y-104140000D03*
X119380000Y-106680000D03*
X119380000Y-109220000D03*
X119380000Y-111760000D03*
X119380000Y-114300000D03*
X119380000Y-116840000D03*
X119380000Y-119380000D03*
%TD*%
%TO.C,JRaspberryPiZero1*%
G36*
G01*
X138650000Y-66890000D02*
X138650000Y-65190000D01*
G75*
G02*
X138850000Y-64990000I200000J0D01*
G01*
X140550000Y-64990000D01*
G75*
G02*
X140750000Y-65190000I0J-200000D01*
G01*
X140750000Y-66890000D01*
G75*
G02*
X140550000Y-67090000I-200000J0D01*
G01*
X138850000Y-67090000D01*
G75*
G02*
X138650000Y-66890000I0J200000D01*
G01*
G37*
X137160000Y-66040000D03*
X139700000Y-68580000D03*
X137160000Y-68580000D03*
X139700000Y-71120000D03*
X137160000Y-71120000D03*
X139700000Y-73660000D03*
X137160000Y-73660000D03*
X139700000Y-76200000D03*
X137160000Y-76200000D03*
X139700000Y-78740000D03*
X137160000Y-78740000D03*
X139700000Y-81280000D03*
X137160000Y-81280000D03*
X139700000Y-83820000D03*
X137160000Y-83820000D03*
X139700000Y-86360000D03*
X137160000Y-86360000D03*
X139700000Y-88900000D03*
X137160000Y-88900000D03*
X139700000Y-91440000D03*
X137160000Y-91440000D03*
X139700000Y-93980000D03*
X137160000Y-93980000D03*
X139700000Y-96520000D03*
X137160000Y-96520000D03*
X139700000Y-99060000D03*
X137160000Y-99060000D03*
X139700000Y-101600000D03*
X137160000Y-101600000D03*
X139700000Y-104140000D03*
X137160000Y-104140000D03*
X139700000Y-106680000D03*
X137160000Y-106680000D03*
X139700000Y-109220000D03*
X137160000Y-109220000D03*
X139700000Y-111760000D03*
X137160000Y-111760000D03*
X139700000Y-114300000D03*
X137160000Y-114300000D03*
%TD*%
%TO.C,JMainBoard2*%
X134620000Y-119380000D03*
X134620000Y-116840000D03*
X134620000Y-114300000D03*
X134620000Y-111760000D03*
X134620000Y-109220000D03*
X134620000Y-106680000D03*
X134620000Y-104140000D03*
X134620000Y-101600000D03*
X134620000Y-99060000D03*
X134620000Y-96520000D03*
X134620000Y-93980000D03*
X134620000Y-91440000D03*
X134620000Y-88900000D03*
X134620000Y-86360000D03*
X134620000Y-83820000D03*
X134620000Y-81280000D03*
X134620000Y-78740000D03*
X134620000Y-76200000D03*
X134620000Y-73660000D03*
X134620000Y-71120000D03*
X134620000Y-68580000D03*
X134620000Y-66040000D03*
X134620000Y-63500000D03*
G36*
G01*
X135670000Y-60110000D02*
X135670000Y-61810000D01*
G75*
G02*
X135470000Y-62010000I-200000J0D01*
G01*
X133770000Y-62010000D01*
G75*
G02*
X133570000Y-61810000I0J200000D01*
G01*
X133570000Y-60110000D01*
G75*
G02*
X133770000Y-59910000I200000J0D01*
G01*
X135470000Y-59910000D01*
G75*
G02*
X135670000Y-60110000I0J-200000D01*
G01*
G37*
%TD*%
%TO.C,JDenise1*%
G36*
G01*
X115840000Y-61760000D02*
X115840000Y-60160000D01*
G75*
G02*
X116040000Y-59960000I200000J0D01*
G01*
X117640000Y-59960000D01*
G75*
G02*
X117840000Y-60160000I0J-200000D01*
G01*
X117840000Y-61760000D01*
G75*
G02*
X117640000Y-61960000I-200000J0D01*
G01*
X116040000Y-61960000D01*
G75*
G02*
X115840000Y-61760000I0J200000D01*
G01*
G37*
D12*
X132080000Y-88900000D03*
X116840000Y-63500000D03*
X132080000Y-86360000D03*
X116840000Y-66040000D03*
X132080000Y-83820000D03*
X116840000Y-68580000D03*
X132080000Y-81280000D03*
X116840000Y-71120000D03*
X132080000Y-78740000D03*
X116840000Y-73660000D03*
X132080000Y-76200000D03*
X116840000Y-76200000D03*
X132080000Y-73660000D03*
X116840000Y-78740000D03*
X132080000Y-71120000D03*
X116840000Y-81280000D03*
X132080000Y-68580000D03*
X116840000Y-83820000D03*
X132080000Y-66040000D03*
X116840000Y-86360000D03*
X132080000Y-63500000D03*
X116840000Y-88900000D03*
X132080000Y-60960000D03*
%TD*%
%TO.C,JDenise2*%
X132080000Y-91440000D03*
X116840000Y-119380000D03*
X132080000Y-93980000D03*
X116840000Y-116840000D03*
X132080000Y-96520000D03*
X116840000Y-114300000D03*
X132080000Y-99060000D03*
X116840000Y-111760000D03*
X132080000Y-101600000D03*
X116840000Y-109220000D03*
X132080000Y-104140000D03*
X116840000Y-106680000D03*
X132080000Y-106680000D03*
X116840000Y-104140000D03*
X132080000Y-109220000D03*
X116840000Y-101600000D03*
X132080000Y-111760000D03*
X116840000Y-99060000D03*
X132080000Y-114300000D03*
X116840000Y-96520000D03*
X132080000Y-116840000D03*
X116840000Y-93980000D03*
X132080000Y-119380000D03*
G36*
G01*
X115840000Y-92240000D02*
X115840000Y-90640000D01*
G75*
G02*
X116040000Y-90440000I200000J0D01*
G01*
X117640000Y-90440000D01*
G75*
G02*
X117840000Y-90640000I0J-200000D01*
G01*
X117840000Y-92240000D01*
G75*
G02*
X117640000Y-92440000I-200000J0D01*
G01*
X116040000Y-92440000D01*
G75*
G02*
X115840000Y-92240000I0J200000D01*
G01*
G37*
%TD*%
D11*
%TO.C,JButton1*%
X137160000Y-119380000D03*
G36*
G01*
X136110000Y-117690000D02*
X136110000Y-115990000D01*
G75*
G02*
X136310000Y-115790000I200000J0D01*
G01*
X138010000Y-115790000D01*
G75*
G02*
X138210000Y-115990000I0J-200000D01*
G01*
X138210000Y-117690000D01*
G75*
G02*
X138010000Y-117890000I-200000J0D01*
G01*
X136310000Y-117890000D01*
G75*
G02*
X136110000Y-117690000I0J200000D01*
G01*
G37*
%TD*%
M02*
